<svg xmlns="http://www.w3.org/2000/svg" aria-hidden="true" focusable="false">
  <symbol id="i-home" viewBox="0 0 24 24">
    <path d="M4 10.5L12 4l8 6.5" />
    <path d="M6.5 9.5V20h11V9.5" />
    <path d="M10 20v-5h4v5" />
  </symbol>
  <symbol id="i-spark" viewBox="0 0 24 24">
    <path d="M12 3l1.8 4.7L18.5 9.5l-4.7 1.8L12 16l-1.8-4.7L5.5 9.5l4.7-1.8L12 3Z" />
    <path d="M19 4v4" />
    <path d="M21 6h-4" />
  </symbol>
  <symbol id="i-cut" viewBox="0 0 24 24">
    <circle cx="6" cy="7" r="2.5" />
    <circle cx="6" cy="17" r="2.5" />
    <path d="M20 5L8 15" />
    <path d="M20 19L10 11" />
  </symbol>
  <symbol id="i-director" viewBox="0 0 24 24">
    <rect x="4" y="6" width="16" height="12" rx="2.5" />
    <path d="M9 10.5l3 1.5-3 1.5v-3Z" />
    <path d="M8 4l1 2" />
    <path d="M12 3v2" />
    <path d="M16 4l-1 2" />
  </symbol>
  <symbol id="i-voice" viewBox="0 0 24 24">
    <path d="M12 4a3 3 0 0 1 3 3v5a3 3 0 0 1-6 0V7a3 3 0 0 1 3-3Z" />
    <path d="M18 11a6 6 0 0 1-12 0" />
    <path d="M12 17v3" />
    <path d="M8 20h8" />
  </symbol>
  <symbol id="i-enhance" viewBox="0 0 24 24">
    <rect x="4" y="5" width="16" height="14" rx="2.5" />
    <path d="M9 12l2 2 4-4" />
    <path d="M16.5 7.5l1 1" />
  </symbol>
  <symbol id="i-sound" viewBox="0 0 24 24">
    <path d="M5 14h3l4 4V6L8 10H5v4Z" />
    <path d="M16 9a4 4 0 0 1 0 6" />
    <path d="M18.5 6.5a7 7 0 0 1 0 11" />
  </symbol>
  <symbol id="i-template" viewBox="0 0 24 24">
    <rect x="4" y="5" width="7" height="6" rx="1.5" />
    <rect x="13" y="5" width="7" height="6" rx="1.5" />
    <rect x="4" y="13" width="7" height="6" rx="1.5" />
    <rect x="13" y="13" width="7" height="6" rx="1.5" />
  </symbol>
  <symbol id="i-update" viewBox="0 0 24 24">
    <path d="M20 12a8 8 0 1 1-2.34-5.66" />
    <path d="M20 5v5h-5" />
  </symbol>
  <symbol id="i-settings" viewBox="0 0 24 24">
    <path d="M12 8.5A3.5 3.5 0 1 1 8.5 12 3.5 3.5 0 0 1 12 8.5Z" />
    <path d="M19.4 15a1 1 0 0 0 .2 1.1l.1.1a2 2 0 1 1-2.8 2.8l-.1-.1a1 1 0 0 0-1.1-.2 1 1 0 0 0-.6.9V20a2 2 0 1 1-4 0v-.2a1 1 0 0 0-.6-.9 1 1 0 0 0-1.1.2l-.1.1a2 2 0 0 1-2.8-2.8l.1-.1a1 1 0 0 0 .2-1.1 1 1 0 0 0-.9-.6H4a2 2 0 1 1 0-4h.2a1 1 0 0 0 .9-.6 1 1 0 0 0-.2-1.1l-.1-.1a2 2 0 0 1 2.8-2.8l.1.1a1 1 0 0 0 1.1.2 1 1 0 0 0 .6-.9V4a2 2 0 1 1 4 0v.2a1 1 0 0 0 .6.9 1 1 0 0 0 1.1-.2l.1-.1a2 2 0 1 1 2.8 2.8l-.1.1a1 1 0 0 0-.2 1.1 1 1 0 0 0 .9.6H20a2 2 0 1 1 0 4h-.2a1 1 0 0 0-.9.6Z" />
  </symbol>
  <symbol id="i-user" viewBox="0 0 24 24">
    <circle cx="12" cy="8" r="4" />
    <path d="M5 20a7 7 0 0 1 14 0" />
  </symbol>
  <symbol id="i-search" viewBox="0 0 24 24">
    <circle cx="11" cy="11" r="6" />
    <path d="M20 20l-4.2-4.2" />
  </symbol>
  <symbol id="i-arrow" viewBox="0 0 24 24">
    <path d="M5 12h14" />
    <path d="M13 6l6 6-6 6" />
  </symbol>
  <symbol id="i-play" viewBox="0 0 24 24">
    <circle cx="12" cy="12" r="9" />
    <path d="M10 8.8l5.4 3.2L10 15.2V8.8Z" />
  </symbol>
  <symbol id="i-bolt" viewBox="0 0 24 24">
    <path d="M13 2L5 13h5l-1 9 8-11h-5l1-9Z" />
  </symbol>
  <symbol id="i-bell" viewBox="0 0 24 24">
    <path d="M15 18H9a2 2 0 0 1-2-2v-4a5 5 0 1 1 10 0v4a2 2 0 0 1-2 2Z" />
    <path d="M10 20a2 2 0 0 0 4 0" />
  </symbol>
  <symbol id="i-grid" viewBox="0 0 24 24">
    <rect x="4" y="4" width="6" height="6" rx="1.5" />
    <rect x="14" y="4" width="6" height="6" rx="1.5" />
    <rect x="4" y="14" width="6" height="6" rx="1.5" />
    <rect x="14" y="14" width="6" height="6" rx="1.5" />
  </symbol>
  <symbol id="i-folder" viewBox="0 0 24 24">
    <path d="M4 8.5A2.5 2.5 0 0 1 6.5 6H10l2 2h5.5A2.5 2.5 0 0 1 20 10.5v7A2.5 2.5 0 0 1 17.5 20h-11A2.5 2.5 0 0 1 4 17.5v-9Z" />
  </symbol>
  <symbol id="i-plugin" viewBox="0 0 24 24">
    <path d="M14.5 7a2.5 2.5 0 1 0-4.9-.8L7 8.8V12h3.2l2.6-2.6A2.5 2.5 0 0 0 14.5 7Z" />
    <path d="M12 12l6 6" />
    <path d="M8 14l-2 2" />
    <path d="M5 17l2 2" />
  </symbol>
  <symbol id="i-menu" viewBox="0 0 24 24">
    <path d="M4 7h16" />
    <path d="M4 12h16" />
    <path d="M4 17h16" />
  </symbol>
  <symbol id="i-close" viewBox="0 0 24 24">
    <path d="M6 6l12 12" />
    <path d="M18 6L6 18" />
  </symbol>
  <symbol id="i-cloud" viewBox="0 0 24 24">
    <path d="M7 18a4 4 0 0 1-.4-8 6 6 0 0 1 11.6-1.4A4.5 4.5 0 1 1 18.5 18Z" />
  </symbol>
  <symbol id="i-export" viewBox="0 0 24 24">
    <path d="M12 15V4" />
    <path d="M8 8l4-4 4 4" />
    <path d="M5 16v2a2 2 0 0 0 2 2h10a2 2 0 0 0 2-2v-2" />
  </symbol>
  <symbol id="i-check" viewBox="0 0 24 24">
    <path d="M5 12.5l4.2 4.2L19 7.5" />
  </symbol>
  <symbol id="i-star" viewBox="0 0 24 24">
    <path d="M12 3.7l2.6 5.3 5.9.9-4.2 4.1 1 5.8L12 17l-5.3 2.8 1-5.8L3.5 9.9l5.9-.9L12 3.7Z" />
  </symbol>
  <symbol id="i-video" viewBox="0 0 24 24">
    <rect x="3.5" y="6" width="12.5" height="12" rx="2" />
    <path d="M16 10l4.5-2.5v9L16 14" />
  </symbol>
  <symbol id="i-card" viewBox="0 0 24 24">
    <rect x="3" y="5" width="18" height="14" rx="2.5" />
    <path d="M3 10h18" />
  </symbol>
  <symbol id="i-lock" viewBox="0 0 24 24">
    <rect x="5" y="10" width="14" height="10" rx="2" />
    <path d="M8 10V8a4 4 0 0 1 8 0v2" />
  </symbol>
  <symbol id="i-layers" viewBox="0 0 24 24">
    <path d="M12 4l8 4-8 4-8-4 8-4Z" />
    <path d="M4 12l8 4 8-4" />
    <path d="M4 16l8 4 8-4" />
  </symbol>
</svg>
